<svg width="529" height="495" viewBox="0 0 529 495" fill="none" xmlns="http://www.w3.org/2000/svg">
<path d="M259.113 57.0375H196.085C91.6562 57.0375 7 143.505 7 250.169C7 356.832 91.6562 443.3 196.085 443.3H259.113C363.542 443.3 448.198 356.832 448.198 250.169C448.198 143.505 363.542 57.0375 259.113 57.0375Z" fill="#ec4899"/>
<path d="M151.902 250.705C187.368 250.705 216.118 221.955 216.118 186.489C216.118 151.024 187.368 122.273 151.902 122.273C116.437 122.273 87.686 151.024 87.686 186.489C87.686 221.955 116.437 250.705 151.902 250.705Z" fill="white"/>
<path d="M151.14 213.131C165.327 213.131 176.827 201.63 176.827 187.444C176.827 173.258 165.327 161.758 151.14 161.758C136.954 161.758 125.454 173.258 125.454 187.444C125.454 201.63 136.954 213.131 151.14 213.131Z" fill="#831843"/>
<path d="M448.198 245.877H510V51.8874" stroke="#f9a8d4" stroke-width="27" stroke-linecap="round" stroke-linejoin="round"/>
<path d="M317.727 245.877H510V438.15" stroke="#f9a8d4" stroke-width="27" stroke-linecap="round" stroke-linejoin="round"/>
<path d="M506.567 146.307L434.464 99.0973L506.567 51.8874" stroke="#f9a8d4" stroke-width="27" stroke-linecap="round" stroke-linejoin="round"/>
<path d="M506.567 438.15L434.464 390.94L506.567 343.73" stroke="#f9a8d4" stroke-width="27" stroke-linecap="round" stroke-linejoin="round"/>
<path d="M303.993 245.877C303.993 238.292 310.142 232.143 317.727 232.143H447.4L448.01 259.611H317.727C310.142 259.611 303.993 253.462 303.993 245.877Z" fill="white"/>
</svg>
